<?xml version="1.0" encoding="utf-8"?>
<!-- Generator: Adobe Illustrator 27.5.0, SVG Export Plug-In . SVG Version: 6.00 Build 0)  -->
<svg version="1.1" xmlns="http://www.w3.org/2000/svg" xmlns:xlink="http://www.w3.org/1999/xlink" x="0px" y="0px"
	 viewBox="0 0 500 500" style="enable-background:new 0 0 500 500;" xml:space="preserve">
<g id="BACKGROUND">
	<linearGradient id="SVGID_1_" gradientUnits="userSpaceOnUse" x1="250" y1="500" x2="250" y2="-9.094947e-13">
		<stop  offset="0" style="stop-color:#1E1745"/>
		<stop  offset="0.2849" style="stop-color:#21184A"/>
		<stop  offset="0.6088" style="stop-color:#281A57"/>
		<stop  offset="0.9508" style="stop-color:#341E6E"/>
		<stop  offset="1" style="stop-color:#361F72"/>
	</linearGradient>
	<rect style="fill:url(#SVGID_1_);" width="500" height="500"/>
</g>
<g id="OBJECTS">
	<path style="fill:#161137;" d="M0,500h44.171h27.423H226.66h105.864h17.021h31.58h31.159H500v-33.083V416.59v-64.006
		c0-8.604-6.975-15.579-15.58-15.579h0c-8.604,0-15.579,6.975-15.579,15.579v56.578c0,4.102-3.326,7.428-7.428,7.428
		c-4.102,0-7.428-3.326-7.428-7.428v-82.33c0-8.389-6.447-15.607-14.827-16.002c-8.947-0.421-16.332,6.708-16.332,15.562v86.636
		c0,1.967-1.595,3.562-3.562,3.562h-3.418c-1.967,0-3.562-1.595-3.562-3.562c0-8.015-5.87-15.061-13.838-15.925
		c-9.385-1.018-17.321,6.307-17.321,15.485c0,2.21-1.792,4.002-4.002,4.002h-15.251c-10.798,0-20.231,5.833-25.325,14.519
		c-4.448,7.585-12.591,12.234-21.383,12.234h-45.131c-5.96,0-11.072,4.663-11.181,10.622c-0.006,0.329,0.02,0.656,0.076,0.978
		c0.909,5.276-3.323,10.049-8.677,10.049H238.24c-8.86,0-17.207-3.82-23.292-10.26c-8.823-9.337-21.321-15.163-35.182-15.163
		c-4.836,0-9.507,0.71-13.913,2.03c-8.506,2.549-17.78-0.386-23.406-7.256c-8.873-10.836-22.351-17.753-37.45-17.753
		c-0.76,0-1.516,0.018-2.267,0.053c-8.553,0.398-15.753-6.292-15.753-14.854v-10.333c0-8.392,6.803-15.195,15.195-15.195h26.009
		c11.046,0,20-8.954,20-20v-58.593c0-10.845-8.433-20.081-19.271-20.466c-11.378-0.404-20.729,8.699-20.729,19.987v28.47
		c0,5.855-4.747,10.602-10.602,10.602h0c-5.855,0-10.602-4.747-10.602-10.602v-43.903c0-13.993-11.452-25.783-25.443-25.517
		c-13.562,0.257-24.477,11.332-24.477,24.955v92.004c0,8.353-7.869,14.573-15.95,12.46c-6.198-1.62-12.757-2.347-19.535-2.027
		c-0.528,0.025-1.049,0.075-1.573,0.112V500z"/>
	<g>
		<path style="fill:#161137;" d="M88.728,39.241c-9.615,0-17.808,6.08-20.949,14.605L52.26,44.478v34.165l15.519-9.368
			c3.14,8.525,11.334,14.605,20.949,14.605c12.326,0,22.319-9.992,22.319-22.319C111.046,49.234,101.054,39.241,88.728,39.241z
			 M99.871,58.523c-1.918,0-3.473-1.555-3.473-3.473c0-1.918,1.555-3.473,3.473-3.473c1.918,0,3.473,1.555,3.473,3.473
			C103.344,56.969,101.789,58.523,99.871,58.523z"/>
		<path style="fill:#161137;" d="M150.635,86.567c-5.98,0-11.077,3.782-13.031,9.084l-9.653-5.827v21.251l9.653-5.827
			c1.953,5.302,7.05,9.084,13.031,9.084c7.667,0,13.883-6.215,13.883-13.883C164.517,92.783,158.302,86.567,150.635,86.567z
			 M157.566,98.561c-1.193,0-2.16-0.967-2.16-2.16c0-1.193,0.967-2.16,2.16-2.16c1.193,0,2.16,0.967,2.16,2.16
			C159.726,97.594,158.759,98.561,157.566,98.561z"/>
		<path style="fill:#161137;" d="M435.216,203.129c0,7.667,6.215,13.883,13.883,13.883c5.98,0,11.077-3.782,13.03-9.084l9.653,5.827
			v-21.251l-9.653,5.827c-1.953-5.302-7.05-9.084-13.03-9.084C441.432,189.247,435.216,195.462,435.216,203.129z M440.007,199.08
			c0-1.193,0.967-2.16,2.16-2.16c1.193,0,2.16,0.967,2.16,2.16c0,1.193-0.967,2.16-2.16,2.16
			C440.974,201.24,440.007,200.273,440.007,199.08z"/>
		<path style="fill:#161137;" d="M404.774,51.578c0,5.159,4.182,9.34,9.341,9.34c4.024,0,7.453-2.545,8.767-6.112l6.495,3.921
			V44.429l-6.495,3.921c-1.314-3.568-4.743-6.112-8.767-6.112C408.956,42.237,404.774,46.419,404.774,51.578z M407.998,48.854
			c0-0.803,0.651-1.453,1.453-1.453s1.453,0.651,1.453,1.453s-0.651,1.453-1.453,1.453S407.998,49.656,407.998,48.854z"/>
		<path style="fill:#161137;" d="M27.657,195.469c0,5.159,4.182,9.34,9.34,9.34c4.024,0,7.453-2.544,8.767-6.112l6.495,3.921V188.32
			l-6.495,3.921c-1.314-3.568-4.743-6.112-8.767-6.112C31.839,186.129,27.657,190.31,27.657,195.469z M30.881,192.745
			c0-0.803,0.651-1.453,1.453-1.453s1.453,0.651,1.453,1.453s-0.651,1.453-1.453,1.453S30.881,193.548,30.881,192.745z"/>
	</g>
	<g>
		<path style="fill:#6E33DB;" d="M378.063,391.292l-214.831,5.715c-3.226,0.086-6.357-2.084-6.993-4.847l-51.166-222.169
			c-0.636-2.763,2.931-9.003,6.739-12.374l212.781,1.502c3.226-0.086,6.357,2.084,6.993,4.847l56.982,215.725
			C385.047,387.25,381.289,391.206,378.063,391.292z"/>
		<path style="fill:#F6D9DC;" d="M384.151,382.198l-214.831,5.714c-3.226,0.086-6.357-2.084-6.993-4.847L111.16,160.897
			c-0.636-2.762,1.463-5.072,4.689-5.157l214.831-5.714c3.226-0.086,6.357,2.084,6.993,4.847l51.166,222.169
			C389.476,379.803,387.377,382.112,384.151,382.198z"/>
		
			<ellipse transform="matrix(0.3667 -0.9303 0.9303 0.3667 -0.8357 304.5371)" style="fill:#FFFFFF;stroke:#566DEB;stroke-width:3;stroke-miterlimit:10;" cx="223.265" cy="152.882" rx="39.207" ry="49.829"/>
		<g>
			<path style="fill:#6E33DB;" d="M233.629,140.388c1.434,6.225-3.297,11.427-10.566,11.62c-7.269,0.193-14.324-4.696-15.757-10.92
				s3.297-11.427,10.566-11.62C225.141,129.274,232.196,134.163,233.629,140.388z"/>
			<path style="fill:#6E33DB;" d="M234.713,148.88c-2.185,3.153-6.16,5.244-11.132,5.376c-4.972,0.132-9.855-1.722-13.457-4.722
				c-3.683,3.177-5.416,7.911-4.213,13.134l2.774,12.045l38.977-1.037l-2.774-12.045
				C243.685,156.408,239.805,151.823,234.713,148.88z"/>
		</g>
		<g>
			<path style="fill:#FFFFFF;" d="M319.083,241.465l-149.915,3.988c-9.531,0.253-18.78-6.157-20.66-14.318l0,0
				c-1.88-8.161,4.323-14.982,13.853-15.236l149.915-3.988c9.53-0.254,18.78,6.157,20.66,14.318h0
				C334.815,234.391,328.613,241.212,319.083,241.465z"/>
			
				<text transform="matrix(1.138 -0.0303 0.2244 0.9745 163.3759 235.1273)" style="fill:#7E73D5; font-family:'FiraSans-BookItalic'; font-size:13.2538px;">Username</text>
		</g>
		<g>
			<path style="fill:#FFFFFF;" d="M329.292,285.796l-149.915,3.988c-9.531,0.254-18.78-6.157-20.66-14.318l0,0
				c-1.88-8.161,4.323-14.982,13.853-15.236l149.915-3.988c9.531-0.253,18.78,6.157,20.66,14.318l0,0
				C345.025,278.721,338.823,285.543,329.292,285.796z"/>
			<g>
				<path style="fill:#7E73D5;" d="M179.697,274.908c0.389,1.689-0.895,3.101-2.867,3.153c-1.972,0.052-3.887-1.274-4.276-2.963
					c-0.389-1.689,0.895-3.101,2.867-3.153C177.394,271.892,179.308,273.219,179.697,274.908z"/>
				<path style="fill:#7E73D5;" d="M190.995,274.608c0.389,1.689-0.895,3.101-2.867,3.153c-1.972,0.052-3.887-1.274-4.276-2.963
					c-0.389-1.689,0.895-3.101,2.867-3.153C188.692,271.592,190.606,272.918,190.995,274.608z"/>
				<path style="fill:#7E73D5;" d="M202.293,274.307c0.389,1.689-0.895,3.101-2.867,3.153c-1.972,0.052-3.887-1.274-4.276-2.963
					c-0.389-1.689,0.895-3.101,2.867-3.153C199.989,271.291,201.904,272.618,202.293,274.307z"/>
				<path style="fill:#7E73D5;" d="M213.59,274.007c0.389,1.689-0.895,3.101-2.867,3.153c-1.973,0.052-3.887-1.274-4.276-2.963
					c-0.389-1.689,0.895-3.101,2.867-3.153C211.287,270.991,213.201,272.318,213.59,274.007z"/>
				<path style="fill:#7E73D5;" d="M224.888,273.706c0.389,1.689-0.895,3.101-2.867,3.153c-1.972,0.052-3.887-1.274-4.276-2.963
					c-0.389-1.689,0.895-3.101,2.867-3.153C222.585,270.69,224.499,272.017,224.888,273.706z"/>
				<path style="fill:#7E73D5;" d="M236.186,273.405c0.389,1.689-0.895,3.101-2.867,3.153c-1.972,0.052-3.887-1.274-4.276-2.963
					c-0.389-1.689,0.895-3.101,2.867-3.153C233.882,270.39,235.797,271.716,236.186,273.405z"/>
				<path style="fill:#7E73D5;" d="M247.483,273.105c0.389,1.689-0.895,3.101-2.867,3.153c-1.972,0.053-3.887-1.274-4.276-2.963
					c-0.389-1.689,0.895-3.101,2.867-3.153C245.18,270.089,247.094,271.416,247.483,273.105z"/>
				<path style="fill:#7E73D5;" d="M258.781,272.804c0.389,1.689-0.895,3.101-2.867,3.153c-1.972,0.052-3.887-1.274-4.276-2.963
					c-0.389-1.689,0.895-3.101,2.867-3.153C256.478,269.789,258.392,271.115,258.781,272.804z"/>
				<path style="fill:#7E73D5;" d="M270.079,272.504c0.389,1.689-0.895,3.101-2.867,3.153c-1.973,0.052-3.887-1.274-4.276-2.963
					c-0.389-1.689,0.895-3.101,2.867-3.153C267.776,269.488,269.69,270.815,270.079,272.504z"/>
			</g>
		</g>
		<g>
			<path style="fill:none;stroke:#E9925F;stroke-width:2;stroke-linecap:round;stroke-miterlimit:10;" d="M150.803,286.262
				l-26.426-114.743c-0.714-3.098,1.641-5.688,5.26-5.785l28.92-0.769"/>
			<path style="fill:none;stroke:#E9925F;stroke-width:2;stroke-linecap:round;stroke-miterlimit:10;" d="M199.558,376.746
				l-21.194,0.564c-3.618,0.096-7.13-2.338-7.844-5.436l-8.444-36.664"/>
			
				<line style="fill:none;stroke:#E9925F;stroke-width:2;stroke-linecap:round;stroke-miterlimit:10;" x1="263.773" y1="375.038" x2="218.582" y2="376.24"/>
			<path style="fill:none;stroke:#E9925F;stroke-width:2;stroke-linecap:round;stroke-miterlimit:10;" d="M350.079,255.508
				l25.543,110.91c0.714,3.099-1.641,5.689-5.26,5.785l-67.327,1.791"/>
			<path style="fill:none;stroke:#E9925F;stroke-width:2;stroke-linecap:round;stroke-miterlimit:10;" d="M288.822,161.5
				l32.814-0.873c3.618-0.096,7.13,2.338,7.844,5.436l4.424,19.208"/>
		</g>
		<path style="fill:#6E33DB;" d="M290.484,326.861l-53.971,1.436c-7.148,0.19-14.085-4.617-15.494-10.738l0,0
			c-1.41-6.121,3.242-11.237,10.39-11.427l53.971-1.436c7.148-0.19,14.085,4.617,15.494,10.738l0,0
			C302.283,321.555,297.631,326.671,290.484,326.861z"/>
		
			<text transform="matrix(1.138 -0.0303 0.2244 0.9745 243.1211 321.0168)" style="fill:#FFC639; font-family:'FiraSans-Medium'; font-size:13.2538px;">Login</text>
		<g>
			<polygon style="fill:none;" points="349.546,356.516 191.746,360.713 188.647,347.257 346.447,343.059 			"/>
			<text transform="matrix(1.138 -0.0303 0.2244 0.9745 192.4356 351.3163)"><tspan x="0" y="0" style="fill:#7E73D5; font-family:'FiraSans-BookItalic'; font-size:5.6802px;">Lorem ipsum dolor sit amet, consectetuer adipiscing </tspan><tspan x="5.223" y="6.816" style="fill:#7E73D5; font-family:'FiraSans-BookItalic'; font-size:5.6802px;">elit, sed diam nonummy nibh euismod tincidunt.</tspan></text>
		</g>
	</g>
	<g>
		<g>
			<path style="fill:#5996F5;" d="M357.998,158.536l-12.531,19.443c-6.425,9.733-19.57,12.425-29.304,6
				c-1.418-0.936-2.682-2.019-3.79-3.212c-1.23-1.323-3.171-1.695-4.78-0.873h0c-2.337,1.195-2.948,4.31-1.166,6.238
				c1.555,1.682,3.333,3.206,5.329,4.523c13.415,8.855,31.533,5.145,40.388-8.27l7.511,4.958L357.998,158.536z"/>
			<path style="fill:#5996F5;" d="M312.921,150.497l38.474-58.287c1.217-1.844,0.709-4.325-1.135-5.542
				c-1.843-1.217-4.325-0.709-5.542,1.135l-41.231,62.465c-0.106,0.161-0.202,0.326-0.305,0.488L312.921,150.497z"/>
		</g>
		<path style="fill:none;stroke:#FFFFFF;stroke-width:2;stroke-linecap:round;stroke-linejoin:round;stroke-miterlimit:10;" d="
			M348.305,89.568l13.771-20.113c4.806-7.019,14.321-8.946,21.479-4.348h0c7.064,4.537,9.319,13.822,5.125,21.094l-2.839,4.922
			c-7.514,13.027-3.055,29.678,9.964,37.206l0,0c12.721,7.356,28.984,3.3,36.761-9.168l41.059-65.822
			c4.976-7.977,2.716-18.464-5.104-23.684l0,0c-7.727-5.158-10.04-15.476-5.254-23.438l3.155-5.248"/>
	</g>
</g>
</svg>
